# xmcd
#
# Track frame offsets: 
#        150
#        15699
#        31705
#        48598
#        64906
#        83833
#        99351
#        114505
#        133400
#        147189
#        165314
#        179186
#        194068
#        210066
#        225640
#        247327
#        262435
#        277462
#        293997
#
# Disc length: 4157 seconds
#
# Revision: 0
# Processed by: cddbd v1.5.2PL0 Copyright (c) Steve Scherf et al.
# Submitted via: ExactAudioCopy v0.95b4
#
DISCID=2d103b13
DTITLE=Uitverkorenen - Kruistocht Door De Ruimte
DYEAR=2001
DGENRE=Nederhop
TTITLE0=Introductie van de Bemanning
TTITLE1=Sterrenschip De Uitverkorenen
TTITLE2=Gelanceerd
TTITLE3=Gevaarlijk
TTITLE4=Definitie van Hard-Core
TTITLE5=Klusjesman
TTITLE6=Bloedgeld
TTITLE7=Stress
TTITLE8=Vaders en Moeders
TTITLE9=Voor een dubbeltje geboren
TTITLE10=Alles uit De Kast
TTITLE11=Met Duizenden
TTITLE12=Geen Zin
TTITLE13=UFO 2001
TTITLE14=Sla en Azijn
TTITLE15=Dope is De Duivel
TTITLE16=Wordt De Wereld Gek?
TTITLE17=Reageerbuisgeneratie
TTITLE18=De Muziekman
EXTD=
EXTT0=
EXTT1=
EXTT2=
EXTT3=
EXTT4=
EXTT5=
EXTT6=
EXTT7=
EXTT8=
EXTT9=
EXTT10=
EXTT11=
EXTT12=
EXTT13=
EXTT14=
EXTT15=
EXTT16=
EXTT17=
EXTT18=
PLAYORDER=
